<?xml version="1.0" standalone="no"?>
<!DOCTYPE svg PUBLIC "-//W3C//DTD SVG 20010904//EN"
 "http://www.w3.org/TR/2001/REC-SVG-20010904/DTD/svg10.dtd">
<svg version="1.0" xmlns="http://www.w3.org/2000/svg"
 width="260.000000pt" height="300.000000pt" viewBox="0 0 260.000000 300.000000"
 preserveAspectRatio="xMidYMid meet">
<metadata>
Created by potrace 1.15, written by Peter Selinger 2001-2017
</metadata>
<g transform="translate(0.000000,300.000000) scale(0.100000,-0.100000)"
fill="#000000" stroke="none">
<path d="M574 2975 c-83 -41 -124 -117 -124 -231 l0 -64 -90 0 c-158 0 -259
-59 -322 -188 l-33 -67 0 -1045 0 -1045 26 -55 c33 -70 95 -132 167 -167 l57
-28 1045 0 1045 0 47 22 c66 30 143 105 175 172 l28 56 0 1045 0 1045 -33 67
c-60 122 -150 179 -297 188 l-90 5 -5 86 c-4 72 -10 93 -33 127 -74 112 -217
134 -313 49 -52 -45 -74 -96 -81 -187 l-6 -80 -103 0 -104 0 0 50 c0 87 -18
145 -61 194 -96 109 -255 98 -335 -24 -22 -33 -28 -56 -33 -128 l-6 -87 -106
-3 -106 -3 -5 85 c-4 72 -9 92 -34 133 -59 96 -170 128 -270 78z m135 -110
c48 -24 52 -51 49 -299 l-3 -228 -28 -24 c-30 -25 -75 -31 -108 -14 -43 24
-49 57 -49 278 0 117 5 222 10 238 11 31 53 63 83 64 10 0 31 -7 46 -15z m663
-14 l33 -29 3 -198 c2 -109 1 -217 -3 -240 -13 -89 -97 -124 -156 -65 l-29 29
0 237 0 237 29 29 c39 39 80 39 123 0z m649 0 l29 -29 0 -237 0 -237 -29 -29
c-39 -38 -88 -40 -125 -3 -14 15 -26 38 -26 51 0 13 -2 109 -5 213 -4 204 1
243 40 278 37 31 80 29 116 -7z m379 -1568 c0 -878 -1 -899 -20 -931 -11 -18
-34 -41 -52 -52 -32 -20 -53 -20 -1028 -20 -975 0 -996 0 -1028 20 -18 11 -41
34 -52 52 -19 32 -20 53 -20 931 l0 897 1100 0 1100 0 0 -897z"/>
<path d="M380 1665 l0 -165 185 0 185 0 0 165 0 165 -185 0 -185 0 0 -165z"/>
<path d="M870 1665 l0 -165 185 0 185 0 0 165 0 165 -185 0 -185 0 0 -165z"/>
<path d="M1360 1665 l0 -165 185 0 185 0 0 165 0 165 -185 0 -185 0 0 -165z"/>
<path d="M1850 1665 l0 -165 185 0 185 0 0 165 0 165 -185 0 -185 0 0 -165z"/>
<path d="M380 1225 l0 -165 183 2 182 3 3 163 2 162 -185 0 -185 0 0 -165z"/>
<path d="M870 1225 l0 -165 185 0 185 0 0 165 0 165 -185 0 -185 0 0 -165z"/>
<path d="M1360 1225 l0 -165 185 0 185 0 0 165 0 165 -185 0 -185 0 0 -165z"/>
<path d="M1852 1228 l3 -163 183 -3 182 -2 0 165 0 165 -185 0 -185 0 2 -162z"/>
<path d="M380 790 l0 -160 185 0 185 0 0 160 0 160 -185 0 -185 0 0 -160z"/>
<path d="M870 790 l0 -160 185 0 185 0 0 160 0 160 -185 0 -185 0 0 -160z"/>
<path d="M1360 790 l0 -160 185 0 185 0 0 160 0 160 -185 0 -185 0 0 -160z"/>
<path d="M1850 790 l0 -160 185 0 185 0 0 160 0 160 -185 0 -185 0 0 -160z"/>
</g>
</svg>
