<?xml version="1.0" standalone="no"?>
<!DOCTYPE svg PUBLIC "-//W3C//DTD SVG 20010904//EN"
 "http://www.w3.org/TR/2001/REC-SVG-20010904/DTD/svg10.dtd">
<svg version="1.0" xmlns="http://www.w3.org/2000/svg"
 width="512.000000pt" height="512.000000pt" viewBox="0 0 512.000000 512.000000"
 preserveAspectRatio="xMidYMid meet">
<metadata>
Created by potrace 1.15, written by Peter Selinger 2001-2017
</metadata>
<g transform="translate(0.000000,512.000000) scale(0.100000,-0.100000)"
fill="#000000" stroke="none">
<path d="M2310 4559 c-376 -48 -751 -212 -1040 -454 -659 -554 -894 -1471
-581 -2271 209 -537 646 -964 1185 -1159 228 -82 432 -117 691 -117 325 0 592
62 880 202 583 283 983 819 1100 1475 26 142 31 415 11 572 -85 661 -471 1223
-1056 1536 -190 101 -437 180 -659 211 -120 17 -416 20 -531 5z m509 -174
c820 -120 1458 -767 1566 -1588 136 -1043 -649 -1996 -1703 -2066 -747 -50
-1452 363 -1777 1041 -207 431 -238 911 -90 1365 221 675 822 1164 1540 1256
84 11 367 6 464 -8z"/>
<path d="M2580 3654 c-180 -39 -297 -149 -346 -325 -8 -30 -18 -116 -21 -191
l-6 -138 -103 0 -104 0 0 -260 0 -260 105 0 105 0 0 -510 0 -510 295 0 295 0
0 510 0 510 140 0 c105 0 140 3 140 13 0 6 11 113 25 237 14 124 25 235 25
248 0 22 -1 22 -165 22 l-165 0 0 49 c0 27 4 61 10 75 l10 26 150 0 150 0 0
260 0 260 -237 -1 c-164 0 -258 -5 -303 -15z m370 -243 l0 -89 -92 -4 c-122
-6 -171 -29 -201 -96 -18 -40 -21 -72 -25 -219 l-5 -173 158 0 158 0 -7 -61
c-3 -34 -6 -75 -6 -90 l0 -29 -150 0 -150 0 0 -510 0 -510 -125 0 -125 0 0
510 0 510 -105 0 -105 0 0 90 0 90 104 0 104 0 4 213 c4 185 7 219 26 265 58
148 146 190 400 191 l142 1 0 -89z"/>
</g>
</svg>
