<?xml version="1.0" standalone="no"?>
<!DOCTYPE svg PUBLIC "-//W3C//DTD SVG 20010904//EN"
 "http://www.w3.org/TR/2001/REC-SVG-20010904/DTD/svg10.dtd">
<svg version="1.0" xmlns="http://www.w3.org/2000/svg"
 width="256.000000pt" height="256.000000pt" viewBox="0 0 256.000000 256.000000"
 preserveAspectRatio="xMidYMid meet">
<metadata>
Created by potrace 1.15, written by Peter Selinger 2001-2017
</metadata>
<g transform="translate(0.000000,256.000000) scale(0.100000,-0.100000)"
fill="#000000" stroke="none">
<path d="M651 2069 c-284 -56 -519 -263 -618 -544 -26 -75 -28 -90 -28 -245 0
-155 2 -170 28 -245 90 -256 282 -443 542 -525 107 -34 328 -40 448 -11 362
86 577 370 577 759 0 54 -3 107 -6 120 l-6 22 -389 0 -389 0 0 -145 0 -145
229 0 230 0 -15 -44 c-22 -64 -81 -144 -139 -188 -138 -105 -351 -122 -515
-41 -192 94 -307 311 -272 516 43 248 242 418 492 419 119 0 193 -26 305 -106
19 -13 28 -7 133 94 l113 109 -58 46 c-76 60 -199 120 -297 145 -85 21 -278
26 -365 9z"/>
<path d="M2090 1515 l0 -115 -115 0 -115 0 0 -120 0 -120 115 0 115 0 0 -115
0 -115 120 0 120 0 0 115 0 115 115 0 115 0 0 120 0 120 -115 0 -115 0 0 115
0 115 -120 0 -120 0 0 -115z"/>
</g>
</svg>
