<?xml version="1.0" standalone="no"?>
<!DOCTYPE svg PUBLIC "-//W3C//DTD SVG 20010904//EN"
 "http://www.w3.org/TR/2001/REC-SVG-20010904/DTD/svg10.dtd">
<svg version="1.0" xmlns="http://www.w3.org/2000/svg"
 width="512.000000pt" height="512.000000pt" viewBox="0 0 512.000000 512.000000"
 preserveAspectRatio="xMidYMid meet">
<metadata>
Created by potrace 1.15, written by Peter Selinger 2001-2017
</metadata>
<g transform="translate(0.000000,512.000000) scale(0.100000,-0.100000)"
fill="#000000" stroke="none">
<path d="M300 5103 c1 -77 410 -4587 416 -4593 11 -10 1813 -510 1840 -510 24
-1 1836 500 1847 510 7 6 416 4519 417 4593 0 16 -114 17 -2260 17 -2146 0
-2260 -1 -2260 -17z m3664 -975 c-5 -45 -44 -483 -44 -499 0 -5 -449 -9 -1080
-9 l-1080 0 0 -32 c0 -41 40 -505 46 -535 l4 -23 1028 -2 1028 -3 -77 -858
c-42 -472 -78 -860 -80 -862 -6 -5 -1130 -316 -1148 -317 -9 -1 -273 70 -587
157 l-570 159 -37 425 c-21 234 -38 432 -37 439 0 9 62 12 275 12 l275 0 4
-22 c3 -13 13 -113 22 -223 9 -110 17 -201 19 -203 1 -1 144 -41 317 -87 l316
-85 312 84 c172 47 315 88 318 91 3 3 18 144 33 313 15 169 30 333 34 365 l6
57 -979 0 -980 0 -6 53 c-6 54 -146 1620 -146 1637 0 7 504 10 1410 10 l1410
0 -6 -42z"/>
</g>
</svg>
