<?xml version="1.0" standalone="no"?>
<!DOCTYPE svg PUBLIC "-//W3C//DTD SVG 20010904//EN"
 "http://www.w3.org/TR/2001/REC-SVG-20010904/DTD/svg10.dtd">
<svg version="1.0" xmlns="http://www.w3.org/2000/svg"
 width="981.000000pt" height="982.000000pt" viewBox="0 0 981.000000 982.000000"
 preserveAspectRatio="xMidYMid meet">
<metadata>
Created by potrace 1.15, written by Peter Selinger 2001-2017
</metadata>
<g transform="translate(0.000000,982.000000) scale(0.100000,-0.100000)"
fill="#000000" stroke="none">
<path d="M4490 9803 c-511 -50 -943 -153 -1399 -335 -482 -192 -965 -477
-1330 -785 -217 -184 -538 -513 -706 -724 -302 -377 -598 -912 -778 -1405
-123 -339 -220 -747 -257 -1089 -6 -55 -14 -248 -17 -430 -6 -342 5 -606 32
-805 112 -805 455 -1624 963 -2298 219 -291 614 -688 909 -914 736 -563 1706
-940 2573 -998 192 -13 650 -13 842 0 592 41 1209 220 1833 532 706 354 1358
937 1812 1618 421 633 690 1329 797 2060 34 232 45 710 26 1065 -43 765 -339
1622 -808 2334 -314 477 -799 973 -1275 1304 -636 441 -1488 770 -2192 846
-224 25 -869 40 -1025 24z m811 -464 c160 -61 338 -186 504 -353 260 -260 486
-607 675 -1037 69 -154 171 -418 177 -455 5 -31 3 -35 -29 -48 -136 -57 -751
-136 -1333 -171 -55 -3 -124 -8 -153 -11 l-54 -6 4 1044 c3 765 7 1050 16
1070 l11 27 53 -15 c29 -9 87 -29 129 -45z m-612 -4 c12 -41 15 -224 18 -1057
l4 -1008 -90 0 c-292 0 -1245 110 -1428 165 -45 13 -53 20 -53 40 0 54 147
421 265 660 258 523 610 946 943 1132 118 66 254 122 292 120 33 -2 36 -5 49
-52z m-1029 -104 c-11 -17 -68 -90 -125 -163 -58 -73 -137 -177 -176 -232
-166 -231 -382 -656 -530 -1044 -85 -222 -92 -232 -158 -232 -33 0 -304 86
-496 157 -272 100 -564 234 -573 262 -5 15 200 219 350 348 290 249 641 481
973 643 138 67 257 115 660 263 93 34 101 34 75 -2z m2610 -19 c614 -206 1109
-484 1575 -883 167 -144 345 -322 345 -347 0 -26 -152 -101 -417 -206 -266
-106 -696 -248 -708 -234 -1 2 -32 83 -69 181 -82 221 -151 377 -277 629 -163
326 -238 443 -490 759 -97 122 -116 149 -106 149 1 0 68 -22 147 -48z m-4861
-1592 c325 -163 772 -336 1123 -434 31 -9 63 -23 71 -31 17 -16 14 -33 -32
-227 -96 -403 -167 -909 -206 -1463 -8 -121 -17 -253 -21 -292 l-6 -73 -975 0
-976 0 7 111 c42 692 271 1418 644 2039 98 163 269 409 285 410 4 0 43 -18 86
-40z m7150 -66 c316 -429 583 -1005 719 -1551 59 -234 112 -569 128 -800 l7
-103 -976 0 -976 0 -5 43 c-3 23 -13 152 -21 287 -38 577 -101 1031 -212 1514
-38 167 -43 200 -32 211 8 7 61 27 119 44 305 88 703 242 1020 395 74 35 138
65 143 65 4 1 43 -47 86 -105z m-5406 -514 c361 -77 1126 -159 1480 -160 l77
0 0 -890 0 -890 -982 0 -981 0 7 207 c14 465 82 1006 182 1458 44 202 61 256
86 278 25 21 19 21 131 -3z m3610 11 c33 -13 48 -55 96 -271 70 -320 123 -663
155 -1000 18 -183 36 -496 36 -607 l0 -73 -980 0 -980 0 0 888 0 888 253 12
c454 22 1075 96 1317 156 69 18 73 18 103 7z m-4423 -2339 c0 -4 9 -136 20
-292 48 -680 103 -1066 234 -1634 19 -81 22 -113 14 -123 -6 -7 -36 -20 -67
-29 -326 -90 -792 -269 -1093 -420 l-127 -64 -58 78 c-497 672 -819 1553 -869
2380 l-7 112 976 0 c538 0 977 -3 977 -8z m2368 -889 l2 -893 -159 0 c-324 0
-1038 -77 -1359 -146 -63 -13 -124 -24 -136 -24 -48 0 -63 37 -115 270 -105
472 -172 1003 -187 1478 l-7 212 979 -2 979 -3 3 -892z m2338 705 c-19 -536
-92 -1090 -207 -1576 -34 -142 -50 -179 -84 -188 -13 -3 -66 3 -117 14 -320
70 -935 140 -1315 149 l-233 6 0 893 0 894 981 0 982 0 -7 -192z m2361 176 c3
-8 0 -77 -6 -152 -76 -856 -360 -1621 -863 -2319 l-59 -83 -87 44 c-304 153
-728 321 -1034 411 -83 24 -157 50 -165 58 -12 12 -8 43 31 213 110 489 173
933 211 1509 8 127 18 254 21 283 l5 52 970 0 c875 0 970 -2 976 -16z m-4698
-3006 c-1 -935 -7 -1250 -26 -1269 -16 -16 -200 47 -311 108 -222 120 -468
356 -672 643 -181 254 -340 564 -495 960 -76 195 -79 207 -50 226 66 43 708
132 1185 164 199 13 249 16 318 18 l52 2 -1 -852z m695 837 c558 -41 1075
-109 1214 -161 28 -11 42 -22 42 -34 0 -49 -152 -425 -265 -655 -266 -542
-642 -983 -980 -1153 -99 -50 -220 -98 -267 -107 -33 -6 -36 -5 -43 22 -4 15
-9 495 -12 1066 l-5 1037 53 0 c29 0 147 -7 263 -15z m1841 -309 c284 -85 495
-162 734 -270 130 -58 206 -99 216 -116 8 -13 -115 -140 -275 -284 -484 -435
-983 -724 -1635 -946 -82 -28 -153 -49 -158 -47 -5 1 45 71 110 154 253 319
338 452 508 798 108 221 190 411 266 617 41 112 58 146 69 143 8 -2 83 -25
165 -49z m-4435 -156 c94 -241 184 -441 304 -675 142 -276 219 -393 455 -690
62 -77 108 -141 103 -143 -5 -1 -89 25 -188 59 -584 201 -1023 446 -1479 823
-164 136 -395 365 -395 392 0 16 22 31 104 72 256 126 937 369 1006 359 9 -1
43 -74 90 -197z"/>
</g>
</svg>
