<?xml version="1.0" standalone="no"?>
<!DOCTYPE svg PUBLIC "-//W3C//DTD SVG 20010904//EN"
 "http://www.w3.org/TR/2001/REC-SVG-20010904/DTD/svg10.dtd">
<svg version="1.0" xmlns="http://www.w3.org/2000/svg"
 width="560.000000pt" height="560.000000pt" viewBox="0 0 560.000000 560.000000"
 preserveAspectRatio="xMidYMid meet">
<metadata>
Created by potrace 1.15, written by Peter Selinger 2001-2017
</metadata>
<g transform="translate(0.000000,560.000000) scale(0.100000,-0.100000)"
fill="#000000" stroke="none">
<path d="M3320 4372 c-280 -93 -447 -278 -505 -557 -17 -83 -24 -322 -10 -366
l7 -22 -103 6 c-420 27 -896 284 -1361 736 l-108 104 -22 -49 c-70 -159 -97
-398 -64 -564 32 -156 96 -276 215 -403 l64 -68 -44 7 c-76 10 -142 35 -203
76 l-59 40 6 -113 c11 -227 91 -416 233 -550 77 -73 131 -106 232 -145 l83
-31 -38 -6 c-69 -12 -182 -8 -219 8 l-36 15 7 -43 c11 -65 61 -186 102 -247
102 -152 260 -252 468 -295 44 -9 81 -17 82 -19 2 -1 -18 -21 -44 -43 -171
-142 -380 -234 -600 -264 -84 -11 -313 -7 -391 7 -17 4 -32 2 -32 -2 0 -16
114 -101 205 -155 170 -100 385 -172 615 -205 160 -23 503 -15 680 15 231 40
515 123 650 191 41 21 122 69 180 107 520 344 857 858 960 1465 25 147 44 422
36 510 l-6 66 88 70 c104 83 242 225 242 248 0 16 -16 16 -177 10 l-176 -7 56
46 c112 91 212 241 238 358 7 31 9 60 6 63 -3 4 -49 -19 -101 -50 -117 -70
-265 -140 -329 -155 l-48 -12 -65 60 c-132 121 -291 180 -499 187 -122 4 -135
3 -215 -24z"/>
</g>
</svg>
